<svg width="355" height="262" viewBox="0 0 355 262" fill="none" xmlns="http://www.w3.org/2000/svg">
<path d="M345.87 231.264H74.1415C71.7251 231.264 69.4076 230.304 67.6989 228.595C65.9903 226.887 65.0303 224.569 65.0303 222.153C163.532 210.705 260.182 210.705 354.981 222.153C354.981 224.569 354.021 226.887 352.313 228.595C350.604 230.304 348.286 231.264 345.87 231.264Z" fill="#2F2E41"/>
<path d="M354.981 222.689L65.0303 222.153L98.6346 165.61L98.7954 165.342V40.7271C98.7953 39.2146 99.0931 37.7168 99.6719 36.3193C100.251 34.9219 101.099 33.6522 102.169 32.5826C103.238 31.5131 104.508 30.6647 105.905 30.0859C107.303 29.5072 108.8 29.2093 110.313 29.2095H308.091C309.603 29.2093 311.101 29.5072 312.498 30.0859C313.896 30.6647 315.166 31.5131 316.235 32.5826C317.305 33.6522 318.153 34.9219 318.732 36.3193C319.311 37.7168 319.608 39.2146 319.608 40.7271V166.199L354.981 222.689Z" fill="#3F3D56"/>
<path d="M110.051 37.249C109.056 37.2501 108.102 37.6458 107.399 38.3491C106.696 39.0524 106.3 40.006 106.299 41.0007V154.623C106.3 155.617 106.696 156.571 107.399 157.274C108.102 157.978 109.056 158.373 110.051 158.375H309.961C310.956 158.373 311.909 157.978 312.613 157.274C313.316 156.571 313.712 155.617 313.713 154.623V41.0007C313.712 40.006 313.316 39.0525 312.613 38.3491C311.909 37.6458 310.956 37.2502 309.961 37.249H110.051Z" fill="white"/>
<path d="M110.888 173.381C110.581 173.381 110.28 173.47 110.021 173.636C109.762 173.801 109.556 174.038 109.427 174.317L99.0728 196.827C98.96 197.072 98.9107 197.341 98.9294 197.61C98.948 197.879 99.0341 198.139 99.1795 198.366C99.325 198.593 99.5252 198.78 99.7617 198.909C99.9983 199.039 100.264 199.107 100.533 199.107H318.283C318.558 199.107 318.827 199.037 319.066 198.903C319.306 198.77 319.507 198.577 319.651 198.344C319.795 198.111 319.877 197.845 319.89 197.571C319.902 197.297 319.844 197.025 319.721 196.78L308.466 174.27C308.333 174.002 308.128 173.777 307.874 173.62C307.62 173.463 307.327 173.38 307.028 173.381H110.888Z" fill="#2F2E41"/>
<path d="M209.202 35.3729C210.534 35.3729 211.614 34.2931 211.614 32.9611C211.614 31.6291 210.534 30.5493 209.202 30.5493C207.87 30.5493 206.79 31.6291 206.79 32.9611C206.79 34.2931 207.87 35.3729 209.202 35.3729Z" fill="white"/>
<path d="M187.799 203.395C187.445 203.395 187.102 203.512 186.821 203.727C186.541 203.942 186.339 204.243 186.246 204.584L183.649 214.231C183.585 214.47 183.576 214.72 183.624 214.962C183.672 215.204 183.775 215.432 183.925 215.628C184.075 215.823 184.268 215.982 184.49 216.091C184.711 216.201 184.955 216.257 185.201 216.257H234.597C234.853 216.257 235.106 216.196 235.334 216.079C235.561 215.961 235.758 215.791 235.906 215.582C236.055 215.373 236.152 215.132 236.188 214.878C236.224 214.624 236.2 214.366 236.116 214.124L232.776 204.476C232.667 204.161 232.462 203.887 232.19 203.693C231.917 203.499 231.591 203.395 231.257 203.395H187.799Z" fill="#2F2E41"/>
<path d="M319.608 163.466V165.609H98.6345L98.8008 165.342V163.466H319.608Z" fill="#2F2E41"/>
<path d="M313.445 75.0335C334.165 75.0335 350.962 58.2367 350.962 37.5167C350.962 16.7968 334.165 0 313.445 0C292.725 0 275.928 16.7968 275.928 37.5167C275.928 58.2367 292.725 75.0335 313.445 75.0335Z" fill="#47A138"/>
<path d="M328.987 53.8634H297.902C297.334 53.8628 296.789 53.6368 296.387 53.2349C295.985 52.8329 295.759 52.288 295.758 51.7196V32.9612C295.759 32.3928 295.985 31.8479 296.387 31.446C296.789 31.044 297.334 30.818 297.902 30.8174H328.987C329.556 30.818 330.101 31.044 330.503 31.446C330.905 31.8479 331.131 32.3928 331.131 32.9612V51.7196C331.131 52.288 330.905 52.8329 330.503 53.2349C330.101 53.6368 329.556 53.8628 328.987 53.8634ZM297.902 32.9612V51.7196H328.989L328.987 32.9612L297.902 32.9612Z" fill="white"/>
<path d="M323.092 32.9613H303.797V24.3861C303.797 18.175 307.855 13.667 313.445 13.667C319.034 13.667 323.092 18.175 323.092 24.3861L323.092 32.9613ZM305.941 30.8175H320.948V24.3861C320.948 19.3371 317.863 15.8108 313.445 15.8108C309.027 15.8108 305.941 19.3372 305.941 24.3861L305.941 30.8175Z" fill="white"/>
<path d="M313.445 43.9483C314.629 43.9483 315.588 42.9885 315.588 41.8045C315.588 40.6205 314.629 39.6606 313.445 39.6606C312.261 39.6606 311.301 40.6205 311.301 41.8045C311.301 42.9885 312.261 43.9483 313.445 43.9483Z" fill="white"/>
<path d="M287.255 119.835H132.757C131.998 119.834 131.271 119.532 130.735 118.996C130.198 118.459 129.897 117.732 129.896 116.974V78.6492C129.897 77.8906 130.198 77.1634 130.735 76.6271C131.271 76.0907 131.998 75.789 132.757 75.7881H287.255C288.013 75.789 288.741 76.0907 289.277 76.6271C289.813 77.1634 290.115 77.8906 290.116 78.6492V116.974C290.115 117.732 289.813 118.459 289.277 118.996C288.741 119.532 288.013 119.834 287.255 119.835ZM132.757 76.9325C132.302 76.933 131.865 77.1141 131.543 77.4359C131.222 77.7577 131.041 78.194 131.04 78.6492V116.974C131.041 117.429 131.222 117.865 131.543 118.187C131.865 118.509 132.302 118.69 132.757 118.69H287.255C287.71 118.69 288.146 118.509 288.468 118.187C288.79 117.865 288.971 117.429 288.971 116.974V78.6492C288.971 78.194 288.79 77.7577 288.468 77.4358C288.146 77.114 287.71 76.933 287.255 76.9325L132.757 76.9325Z" fill="#E6E6E6"/>
<path d="M156.763 107.996C163.199 107.996 168.417 102.778 168.417 96.341C168.417 89.9044 163.199 84.6865 156.763 84.6865C150.326 84.6865 145.108 89.9044 145.108 96.341C145.108 102.778 150.326 107.996 156.763 107.996Z" fill="#E6E6E6"/>
<path d="M183.679 88.5713C183.423 88.5709 183.171 88.6208 182.935 88.7183C182.699 88.8157 182.484 88.9587 182.303 89.1391C182.123 89.3195 181.979 89.5338 181.881 89.7697C181.784 90.0055 181.733 90.2584 181.733 90.5137C181.733 90.769 181.784 91.0219 181.881 91.2577C181.979 91.4936 182.123 91.7079 182.303 91.8883C182.484 92.0687 182.699 92.2117 182.935 92.3091C183.171 92.4066 183.423 92.4565 183.679 92.4561H275.25C275.765 92.4561 276.259 92.2515 276.623 91.8872C276.988 91.5229 277.192 91.0289 277.192 90.5137C277.192 89.9985 276.988 89.5045 276.623 89.1402C276.259 88.7759 275.765 88.5713 275.25 88.5713H183.679Z" fill="#E6E6E6"/>
<path d="M183.679 100.226C183.164 100.226 182.67 100.43 182.305 100.795C181.941 101.159 181.737 101.653 181.737 102.168C181.737 102.683 181.941 103.177 182.305 103.542C182.67 103.906 183.164 104.11 183.679 104.11H223.082C223.597 104.11 224.091 103.906 224.456 103.542C224.82 103.177 225.025 102.683 225.025 102.168C225.025 101.653 224.82 101.159 224.456 100.795C224.091 100.43 223.597 100.226 223.082 100.226H183.679Z" fill="#E6E6E6"/>
<path d="M102.669 84.9121C103.44 84.7943 104.23 84.879 104.959 85.1582C105.688 85.4375 106.331 85.9017 106.827 86.5049C107.552 87.3876 107.915 88.5133 107.842 89.6533C107.768 90.7933 107.263 91.8624 106.43 92.6445L97.9597 100.602L70.1707 115.375L69.8445 103.959C79.0516 102.385 87.8289 99.6797 95.9607 95.3057L96.1199 95.2207L96.1873 95.0537L99.1746 87.6738C99.4675 86.9501 99.9438 86.3143 100.556 85.8301C101.169 85.3461 101.897 85.0299 102.669 84.9121Z" stroke="black"/>
<path d="M28.4703 188.678C28.262 187.914 28.2177 187.114 28.3405 186.332C28.4633 185.549 28.7503 184.802 29.1827 184.138L35.4566 174.51C36.9405 172.232 39.2174 170.587 41.8457 169.894C44.4739 169.201 47.2659 169.508 49.6802 170.757C47.0435 175.245 47.411 179.183 50.5908 182.604C45.6546 185.014 41.0924 188.124 37.0455 191.838C36.3067 192.342 35.4583 192.662 34.5708 192.771C33.6834 192.881 32.7827 192.776 31.9437 192.467C31.1048 192.158 30.3518 191.653 29.7477 190.994C29.1435 190.335 28.7055 189.541 28.4703 188.678Z" fill="#2F2E41"/>
<path d="M99.5551 176.089C98.6057 177.671 97.2656 178.983 95.6633 179.898C94.0611 180.813 92.2504 181.301 90.4052 181.315L48.7259 181.631L46.9183 171.147L65.3559 165.724L49.8105 153.794L66.8019 133.91L97.6637 162.675C99.4676 164.356 100.64 166.605 100.984 169.047C101.328 171.489 100.824 173.974 99.5551 176.089Z" fill="#8B8B8B"/>
<path d="M42.2185 247.789H32.4574C23.6934 187.715 14.7725 127.473 41.134 104.988L72.2248 110.05L68.2481 136.441L50.895 156.324L42.2185 247.789Z" fill="#8B8B8B"/>
<path d="M50.799 261.398C50.0349 261.606 49.2353 261.651 48.4528 261.528C47.6703 261.405 46.9227 261.118 46.2591 260.686L35.6606 259.261C33.3832 257.777 31.7381 255.501 31.0446 252.872C30.351 250.244 30.6585 247.452 31.9072 245.038C36.3956 247.674 40.3328 247.306 43.7543 244.126C46.1718 249.008 50.155 248.71 53.9591 252.823C54.4628 253.561 54.7826 254.41 54.892 255.297C55.0015 256.185 54.8972 257.085 54.5881 257.924C54.2789 258.763 53.7737 259.516 53.1146 260.12C52.4556 260.725 51.6616 261.163 50.799 261.398Z" fill="#2F2E41"/>
<path d="M70.3239 120.935C57.1652 129.901 47.8676 121.241 40.7725 107.88C41.7584 99.7046 40.1621 89.9206 37.2055 79.2895C35.8906 74.6004 36.3815 69.5888 38.5813 65.244C40.7811 60.8992 44.5298 57.5371 49.0875 55.8213L64.6329 62.3287C77.8328 73.0881 80.4309 84.7427 75.4786 97.0347L70.3239 120.935Z" fill="#3F3D56"/>
<path d="M31.8948 73.627L17.7639 81.0469L16.9709 81.4639L17.7424 81.9199L43.2639 97.0166L46.7727 105.671C46.9855 106.196 47.0891 106.759 47.0774 107.325C47.0656 107.892 46.9389 108.45 46.7043 108.966C46.4698 109.482 46.1323 109.944 45.7131 110.325C45.294 110.706 44.8015 110.999 44.2659 111.184C43.6571 111.393 43.0079 111.46 42.3694 111.377C41.7307 111.294 41.1194 111.064 40.5842 110.706C40.0492 110.348 39.6043 109.87 39.2844 109.312C38.9645 108.753 38.7783 108.126 38.7405 107.483L38.3792 101.344L38.3596 101.005L38.0374 100.898L5.41333 90.1328C4.38625 89.7939 3.45003 89.2251 2.67505 88.4707C1.90005 87.7162 1.30606 86.795 0.939697 85.7773C0.405828 84.2941 0.378683 82.6752 0.862549 81.1748C1.34647 79.6745 2.3146 78.3772 3.6145 77.4854L29.22 59.917L31.8948 73.627Z" stroke="black"/>
<path d="M46.9184 75.3435C40.8873 72.7004 35.4031 75.5715 28.4808 77.8741L27.3963 58.7135C34.2698 55.05 40.8233 54.0622 46.9184 56.9059L46.9184 75.3435Z" fill="#3F3D56"/>
<path d="M52.9089 18.4399C57.7921 18.44 62.4752 20.371 65.9274 23.8071C69.3795 27.2432 71.318 31.903 71.3181 36.7612V50.8071C71.3173 51.344 71.1025 51.8594 70.7204 52.2397C70.3381 52.6201 69.8195 52.8348 69.278 52.8354H36.5397C35.998 52.8348 35.4788 52.6203 35.0964 52.2397C34.7618 51.9067 34.5551 51.4702 34.5085 51.0063L34.4987 50.8062V36.7612C34.4987 31.9029 36.4381 27.2432 39.8903 23.8071C43.3426 20.371 48.0256 18.4399 52.9089 18.4399Z" stroke="black"/>
<path d="M69.0113 46.0009C72.6895 39.2724 70.2166 30.8361 63.4881 27.1579C56.7596 23.4798 48.3233 25.9526 44.6451 32.6812C40.967 39.4097 43.4398 47.846 50.1683 51.5241C56.8969 55.2023 65.3332 52.7295 69.0113 46.0009Z" fill="#47A138"/>
<path d="M62.793 46.2131C63.1031 46.0772 63.3863 45.8597 63.6237 45.5753C63.7808 45.3725 63.9006 45.1291 63.9747 44.8622C64.0488 44.5953 64.0754 44.3113 64.0527 44.0301C64.0395 43.8298 63.9895 43.6359 63.9066 43.4637C63.8237 43.2916 63.7101 43.1458 63.5748 43.0377C63.2237 42.7672 62.7597 42.7774 62.2913 43.0494L62.2372 38.3047L61.8568 38.3115L61.9203 43.8894L62.2099 43.6515C62.5458 43.376 63.0283 43.1762 63.3754 43.4437C63.4613 43.5146 63.533 43.6092 63.5849 43.7204C63.6368 43.8316 63.6675 43.9563 63.6747 44.0847C63.6907 44.2942 63.6705 44.5055 63.6154 44.7043C63.5604 44.9031 63.4719 45.0847 63.3558 45.2368C62.9434 45.7495 62.3329 45.9212 61.6362 46.0784L61.7036 46.5474C62.074 46.477 62.4386 46.3651 62.793 46.2131Z" fill="black"/>
<path d="M69.3926 39.3654L65.7598 39.9155L65.862 40.5899L69.4947 40.0398L69.3926 39.3654Z" fill="black"/>
<path d="M50.8245 39.3654L54.4572 39.9155L54.3551 40.5899L50.7223 40.0398L50.8245 39.3654Z" fill="black"/>
<path d="M58.539 23.2886H61.3388L61.6943 23.2935C65.3641 23.3909 68.8656 24.9294 71.4716 27.603C74.1131 30.3131 75.6215 33.9724 75.6796 37.8042H56.7841L56.6132 35.3433L55.6415 35.2144L54.7402 37.8042H52.5038L52.1318 32.4702L51.1611 32.3403L49.2597 37.8042H44.1992C44.2573 33.9725 45.7649 30.3131 48.4062 27.603C51.0121 24.9294 54.5139 23.3911 58.1835 23.2935L58.539 23.2886Z" stroke="black"/>
</svg>
